<mxfile host="app.diagrams.net" modified="2021-10-18T15:55:14.505Z" agent="5.0 (Windows NT 10.0; Win64; x64) AppleWebKit/537.36 (KHTML, like Gecko) Chrome/94.0.4606.81 Safari/537.36" etag="iAm-He-egCsEiXqIMMTj" version="15.5.5" type="github">
  <diagram id="EP-S3iL2bJB0XsXoEbt5" name="Page-1">
    <mxGraphModel dx="1038" dy="547" grid="1" gridSize="10" guides="1" tooltips="1" connect="1" arrows="1" fold="1" page="1" pageScale="1" pageWidth="850" pageHeight="1100" math="0" shadow="0">
      <root>
        <mxCell id="0" />
        <mxCell id="1" parent="0" />
        <mxCell id="68LxXG4H3mV1ZYXkKBP9-22" style="edgeStyle=orthogonalEdgeStyle;rounded=0;orthogonalLoop=1;jettySize=auto;html=1;exitX=1;exitY=0.5;exitDx=0;exitDy=0;exitPerimeter=0;entryX=0;entryY=0.5;entryDx=0;entryDy=0;" edge="1" parent="1" source="68LxXG4H3mV1ZYXkKBP9-1" target="68LxXG4H3mV1ZYXkKBP9-12">
          <mxGeometry relative="1" as="geometry" />
        </mxCell>
        <mxCell id="68LxXG4H3mV1ZYXkKBP9-1" value="" style="sketch=0;points=[[0.5,0,0],[1,0.5,0],[0.5,1,0],[0,0.5,0],[0.145,0.145,0],[0.8555,0.145,0],[0.855,0.8555,0],[0.145,0.855,0]];verticalLabelPosition=bottom;html=1;verticalAlign=top;aspect=fixed;align=center;pointerEvents=1;shape=mxgraph.cisco19.rect;prIcon=router;fillColor=#FAFAFA;strokeColor=#005073;" vertex="1" parent="1">
          <mxGeometry x="440" y="250" width="80" height="80" as="geometry" />
        </mxCell>
        <mxCell id="68LxXG4H3mV1ZYXkKBP9-16" style="edgeStyle=orthogonalEdgeStyle;rounded=0;orthogonalLoop=1;jettySize=auto;html=1;entryX=0.5;entryY=0;entryDx=0;entryDy=0;entryPerimeter=0;" edge="1" parent="1" source="68LxXG4H3mV1ZYXkKBP9-3" target="68LxXG4H3mV1ZYXkKBP9-14">
          <mxGeometry relative="1" as="geometry" />
        </mxCell>
        <mxCell id="68LxXG4H3mV1ZYXkKBP9-3" value="Print Server" style="image;html=1;image=img/lib/clip_art/networking/Print_Server_128x128.png" vertex="1" parent="1">
          <mxGeometry x="260" y="30" width="75" height="80" as="geometry" />
        </mxCell>
        <mxCell id="68LxXG4H3mV1ZYXkKBP9-17" style="edgeStyle=orthogonalEdgeStyle;rounded=0;orthogonalLoop=1;jettySize=auto;html=1;entryX=1;entryY=0.25;entryDx=0;entryDy=0;entryPerimeter=0;" edge="1" parent="1" source="68LxXG4H3mV1ZYXkKBP9-4" target="68LxXG4H3mV1ZYXkKBP9-14">
          <mxGeometry relative="1" as="geometry" />
        </mxCell>
        <mxCell id="68LxXG4H3mV1ZYXkKBP9-4" value="Application Server" style="aspect=fixed;perimeter=ellipsePerimeter;html=1;align=center;shadow=0;dashed=0;spacingTop=3;image;image=img/lib/active_directory/windows_server_2.svg;" vertex="1" parent="1">
          <mxGeometry x="450" y="50" width="70" height="87.5" as="geometry" />
        </mxCell>
        <mxCell id="68LxXG4H3mV1ZYXkKBP9-19" style="edgeStyle=orthogonalEdgeStyle;rounded=0;orthogonalLoop=1;jettySize=auto;html=1;exitX=1;exitY=0.5;exitDx=0;exitDy=0;entryX=0;entryY=0.5;entryDx=0;entryDy=0;entryPerimeter=0;" edge="1" parent="1" source="68LxXG4H3mV1ZYXkKBP9-5" target="68LxXG4H3mV1ZYXkKBP9-14">
          <mxGeometry relative="1" as="geometry" />
        </mxCell>
        <mxCell id="68LxXG4H3mV1ZYXkKBP9-5" value="NAS" style="aspect=fixed;perimeter=ellipsePerimeter;html=1;align=center;shadow=0;dashed=0;spacingTop=3;image;image=img/lib/active_directory/generic_server.svg;" vertex="1" parent="1">
          <mxGeometry x="140" y="250" width="58" height="103.57" as="geometry" />
        </mxCell>
        <mxCell id="68LxXG4H3mV1ZYXkKBP9-18" style="edgeStyle=orthogonalEdgeStyle;rounded=0;orthogonalLoop=1;jettySize=auto;html=1;entryX=0;entryY=0.25;entryDx=0;entryDy=0;entryPerimeter=0;" edge="1" parent="1" source="68LxXG4H3mV1ZYXkKBP9-6" target="68LxXG4H3mV1ZYXkKBP9-14">
          <mxGeometry relative="1" as="geometry" />
        </mxCell>
        <mxCell id="68LxXG4H3mV1ZYXkKBP9-6" value="Ms Sql Server" style="aspect=fixed;perimeter=ellipsePerimeter;html=1;align=center;shadow=0;dashed=0;spacingTop=3;image;image=img/lib/active_directory/sql_server.svg;" vertex="1" parent="1">
          <mxGeometry x="80" y="120" width="68.5" height="88.96" as="geometry" />
        </mxCell>
        <mxCell id="68LxXG4H3mV1ZYXkKBP9-20" style="edgeStyle=orthogonalEdgeStyle;rounded=0;orthogonalLoop=1;jettySize=auto;html=1;entryX=0.576;entryY=-0.09;entryDx=0;entryDy=0;entryPerimeter=0;" edge="1" parent="1" source="68LxXG4H3mV1ZYXkKBP9-8" target="68LxXG4H3mV1ZYXkKBP9-15">
          <mxGeometry relative="1" as="geometry" />
        </mxCell>
        <mxCell id="68LxXG4H3mV1ZYXkKBP9-8" value="ERP Server" style="aspect=fixed;perimeter=ellipsePerimeter;html=1;align=center;shadow=0;dashed=0;spacingTop=3;image;image=img/lib/active_directory/windows_server_2.svg;" vertex="1" parent="1">
          <mxGeometry x="260" y="310" width="90" height="112.5" as="geometry" />
        </mxCell>
        <mxCell id="68LxXG4H3mV1ZYXkKBP9-11" value="Router" style="text;html=1;align=center;verticalAlign=middle;resizable=0;points=[];autosize=1;strokeColor=none;fillColor=none;" vertex="1" parent="1">
          <mxGeometry x="460" y="340" width="50" height="20" as="geometry" />
        </mxCell>
        <mxCell id="68LxXG4H3mV1ZYXkKBP9-12" value="" style="image;html=1;image=img/lib/clip_art/networking/Firewall_02_128x128.png" vertex="1" parent="1">
          <mxGeometry x="590" y="250" width="80" height="80" as="geometry" />
        </mxCell>
        <mxCell id="68LxXG4H3mV1ZYXkKBP9-21" style="edgeStyle=orthogonalEdgeStyle;rounded=0;orthogonalLoop=1;jettySize=auto;html=1;exitX=1;exitY=0.75;exitDx=0;exitDy=0;exitPerimeter=0;entryX=0;entryY=0.5;entryDx=0;entryDy=0;entryPerimeter=0;" edge="1" parent="1" source="68LxXG4H3mV1ZYXkKBP9-14" target="68LxXG4H3mV1ZYXkKBP9-1">
          <mxGeometry relative="1" as="geometry" />
        </mxCell>
        <mxCell id="68LxXG4H3mV1ZYXkKBP9-14" value="" style="sketch=0;points=[[0.015,0.015,0],[0.985,0.015,0],[0.985,0.985,0],[0.015,0.985,0],[0.25,0,0],[0.5,0,0],[0.75,0,0],[1,0.25,0],[1,0.5,0],[1,0.75,0],[0.75,1,0],[0.5,1,0],[0.25,1,0],[0,0.75,0],[0,0.5,0],[0,0.25,0]];verticalLabelPosition=bottom;html=1;verticalAlign=top;aspect=fixed;align=center;pointerEvents=1;shape=mxgraph.cisco19.rect;prIcon=l2_switch;fillColor=#FAFAFA;strokeColor=#005073;" vertex="1" parent="1">
          <mxGeometry x="290" y="190" width="50" height="50" as="geometry" />
        </mxCell>
        <mxCell id="68LxXG4H3mV1ZYXkKBP9-15" value="Switch" style="text;html=1;align=center;verticalAlign=middle;resizable=0;points=[];autosize=1;strokeColor=none;fillColor=none;" vertex="1" parent="1">
          <mxGeometry x="290" y="240" width="50" height="20" as="geometry" />
        </mxCell>
        <mxCell id="68LxXG4H3mV1ZYXkKBP9-23" value="" style="aspect=fixed;perimeter=ellipsePerimeter;html=1;align=center;shadow=0;dashed=0;spacingTop=3;image;image=img/lib/active_directory/internet_cloud.svg;" vertex="1" parent="1">
          <mxGeometry x="720" y="255.45" width="109.68" height="69.1" as="geometry" />
        </mxCell>
      </root>
    </mxGraphModel>
  </diagram>
</mxfile>
